<svg xmlns="http://www.w3.org/2000/svg" width="200" height="100" viewBox="0,0,200,100">
<path fill="#ff0000" d="M51.77 54.84L51.76 54.84L51.70 54.77Q51.81 55.81 51.78 57.64L51.61 57.48L51.75 57.61Q51.73 59.45 51.60 61.45L51.47 61.32L51.47 61.32Q51.43 63.42 51.21 65.20L51.25 65.24L51.12 65.11Q51.00 66.98 50.68 67.80L50.58 67.71L50.59 67.72Q50.22 68.82 49.51 69.59L49.39 69.47L49.44 69.52Q48.84 70.39 47.63 70.39L47.56 70.32L47.48 70.24Q45.61 70.23 44.79 68.75L44.94 68.90L44.78 68.74Q44.06 67.37 43.79 65.18L43.71 65.11L43.86 65.25Q43.58 63.06 43.64 60.49L43.51 60.36L43.49 60.34Q43.63 57.86 43.52 55.67L43.44 55.59L43.59 55.74Q43.35 53.42 42.86 51.94L42.97 52.05L42.96 52.05Q42.37 50.47 41.06 50.47L41.02 50.43L41.18 50.60Q39.28 50.50 38.32 51.07L38.44 51.19L38.26 51.01Q37.41 51.69 37.00 52.62L36.98 52.60L37.03 52.65Q36.50 53.46 36.41 54.66L36.56 54.81L36.41 54.65Q36.37 55.90 36.26 57.21L36.39 57.34L36.36 57.32Q36.23 58.55 36.17 60.68L36.06 60.57L36.19 60.70Q36.17 62.87 35.73 64.94L35.63 64.84L35.63 64.85Q35.27 67.00 34.26 68.50L34.18 68.42L34.20 68.45Q33.27 70.03 31.30 70.03L31.11 69.83L31.13 69.86Q29.96 69.89 29.22 68.96L29.27 69.01L29.16 68.90Q28.57 68.12 28.13 66.64L28.16 66.67L28.11 66.62Q27.68 65.15 27.49 63.35L27.47 63.33L27.51 63.37Q27.29 61.53 27.26 59.81L27.23 59.78L27.20 59.75Q27.15 58.00 27.18 56.58L27.24 56.64L27.26 56.67Q27.18 55.13 27.18 54.42L27.17 54.41L27.29 54.53Q27.21 53.36 27.29 50.85L27.43 50.98L27.45 51.00Q27.48 48.43 27.75 45.34L27.65 45.25L27.66 45.25Q27.99 42.22 28.43 38.94L28.44 38.95L28.50 39.01Q28.95 35.74 29.66 33.04L29.58 32.96L29.47 32.84Q30.36 30.31 31.37 28.62L31.30 28.54L31.37 28.62Q32.34 26.88 33.71 26.94L33.63 26.85L33.71 26.94Q34.56 26.97 35.19 27.68L35.13 27.62L35.07 27.56Q35.77 28.34 36.18 29.46L36.14 29.42L36.18 29.46Q36.55 30.54 36.82 31.85L36.94 31.97L36.98 32.01Q37.15 33.23 37.29 34.51L37.30 34.52L37.35 34.57Q37.46 35.83 37.49 36.93L37.51 36.95L37.53 36.97Q37.48 37.98 37.48 38.58L37.40 38.50L37.40 38.50Q37.41 39.94 37.36 41.36L37.36 41.36L37.46 41.46Q37.37 42.85 37.26 44.27L37.37 44.37L37.35 44.36Q38.45 42.50 40.55 41.41L40.63 41.49L40.58 41.44Q42.79 40.45 44.92 40.45L44.80 40.32L44.92 40.44Q47.51 40.30 48.91 41.81L49.00 41.90L48.99 41.89Q50.38 43.39 50.98 45.61L51.10 45.72L51.00 45.62Q51.58 47.82 51.64 50.31L51.74 50.41L51.72 50.39Q51.62 52.72 51.62 54.69Z"></path><path fill="#ff0000" d="M91.25 53.41L91.21 53.37L91.16 53.32Q91.24 56.40 90.63 59.36L90.60 59.32L90.61 59.33Q89.98 62.26 88.56 64.59L88.44 64.46L88.55 64.57Q87.14 66.91 84.76 68.33L84.81 68.38L84.64 68.21Q82.32 69.69 78.77 69.69L
2.97 68.35L72.86 68.24L72.94 68.32Q70.56 66.90 69.17 64.61L69.28 64.72L69.27 64.71Q67.71 62.25 67.14 59.35L67.19 59.40L67.26 59.47Q66.58 56.47 66.58 53.46L66.68 53.56L66.70 53.58Q66.75 50.34 67.51 47.12L67.43 47.04L67.43 47.04Q67.52 46.08 67.98 44.53L67.97 44.51L67.97 44.51Q68.47 42.99 69.21 41.49L69.26 41.54L69.29 41.56Q70.04 40.07 70.99 38.98L70.95 38.93L70.98 38.96Q71.89 37.82 73.04 37.82L73.09 37.87L73.14 37.92Q74.05 37.74 74.71 38.34L74.70 38.34L74.73 38.36Q75.47 39.05 75.85 39.95L75.77 39.87L75.81 39.91Q76.28 40.90 76.39 41.91L76.32 41.85L76.27 41.79Q76.42 42.85 76.42 43.67L76.42 43.67L76.38 43.62Q76.48 44.99 76.29 46.19L76.24 46.14L76.21 46.10Q76.14 47.43 75.92 48.64L75.89 48.60L75.91 48.62Q75.72 50.29 75.52 51.93L75.46 51.86L75.46 51.87Q75.27 53.50 75.27 55.14L75.15 55.02L75.33 55.21Q75.19 55.89 75.28 56.90L75.27 56.90L75.32 56.95Q75.44 58.00 75.77 58.93L75.67 58.83L75.81 58.96Q76.02 59.78 76.62 60.41L76.69 60.47L76.62 60.40Q77.28 61.09 78.37 61.09L78.32 61.04L78.30 61.03Q79.79 61.09 80.63 60.32L80.67 60.35L80.69 60.37Q81.47 59.54 81.88 58.40L81.94 58.45L81.92 58.43Q82.30 57.26 82.41 55.95L82.40 55.93L82.30 55.83Q82.60 54.71 82.60 53.61L82.58 53.60L82.41 53.43Q82.43 51.05 82.10 48.72L82.19 48.81L82.14 48.75Q81.85 46.47 81.58 44.07L81.60 44.09L81.55 44.04Q81.60 43.86 81.60 43.37L81.47 43.25L81.61 43.38Q81.45 42.40
 81.72 41.58L81.83 41.69L81.88 41.74Q82.06 40.83 82.55 40.17L82.48 40.10L82.61 40.23Q83.05 39.53 83.77 39.12L83.84 39.19L83.78 39.13Q84.40 38.63 85.27 38.63L85.36 38.71L85.45 38.80Q86.58 38.73 87.51 39.58L87.46 39.53L87.50 39.57Q88.33 40.32 88.96 41.66L88.95 41.65L89.05 41.75Q89.59 43.00 90.00 44.67L90.16 44.82L90.00 44.67Q90.48 46.41 90.73 48.02L90.82 48.11L90.69 47.99Q91.04 49.70 91.12 51.12L91.02 51.02L91.01 51.01Q91.25 52.59 91.25 53.41Z"></path><path fill="#ff0000" d="M132.09 56.15L132.03 56.09L132.04 56.11Q131.99 59.28 130.98 61.80L131.18 61.99L131.02 61.83Q130.14 64.48 128.31 66.23L128.21 66.13L128.28 66.20Q126.33 67.84 123.79 68.77L123.94 68.92L123.85 68.83Q121.24 69.70 118.12 69.70L118.23 69.80L118.11 69.68Q116.60 69.86 114.55 69.26L114.48 69.20L114.44 69.15Q112.30 68.47 110.50 67.32L110.69 67.51L110.61 67.44Q108.87 66.35 107.67 64.73L107.66 64.73L107.66 64.73Q106.48 63.14 106.48 61.17L106.37 61.06L106.35 61.04Q106.29 59.56 107.17 58.68L107.28 58.79L107.22 58.74Q108.18 57.95 109.60 57.95L109.63 57.98L109.48 57.83Q110.99 57.96 111.92 58.51L111.81 58.41L111.76 58.35Q112.81 59.02 113.71 59.70L113.75 59.75L113.68 59.67Q114.66 60.43 115.80 60.98L115.66 60.84L115.68 60.85Q116.95 61.52 118.75 61.52L118.60 61.36L118.66 61.42Q120.88 61.46 122.25 59.93L122.31 59.99L122.32 60.00Q123.68 58.47 123.68 56.33L123.69 56.34L123.60 56.25Q123.55 54.18 122.62 52.70L122.65 52.73L122.73 52.81Q121.66 51.19 119.52 51.19L119.55 51.21L119.58 51.24Q118.63 51.28 117.84 51.50L117.77 51.43L117.86 51.52Q117.12 51.80 116.39 52.07L116.36 52.04L116.22 51.90Q115.64 52.34 114.90 52.58L114.80 52.48L114.85 52.53Q114.06 52.72 113.29 52.83L113.30 52.84L113.40 52.94Q112.65 52.90 111.72 52.71L111.78 52.77L111.80 52.79Q110.86 52.58 109.90 52.20L109.88 52.18L109.91 52.21Q108.97 51.84 108.20 51.32L108.14 51.26L108.15 51.27Q107.51 50.87 107.29 50.27L107.28 50.27L107.19 50.18Q106.96 49.62 106.83 47.98L107.00 48.16L106.93 48.08Q106.70 46.35 106.61 44.43L106.75 44.57L106.64 44.45Q106.55 42.53 106.52 40.81L106.49 40.78L106.55 40.84Q106.60 39.20 106.60 38.54L106.59 38.53L106.50 38.44Q106.49 37.99 106.49 37.01L106.64 37.16L106.50 37.02Q106.63 36.16 106.71 35.10L106.68 35.06L106.60 34.98Q106.65 33.88 106.76 32.95L106.85 33.04L106.85 33.04Q106.95 32.11 107.23 31.78L107.15 31.71L107.26 31.82Q107.60 31.34 108.89 30.90L108.90 30.92L108.91 30.92Q110.01 30.30 111.74 29.92L111.77 29.96L111.79 29.97Q113.55 29.63 115.57 29.33L115.55 29.30L115.63 29.38Q117.56 28.99 119.39 28.77L119.36 28.74L119.41 28.79Q121.24 28.57 122.74 28.46L122.78 28.49L122.73 28.44Q124.32 28.42 124.97 28.42L124.85 28.29L125.02 28.46Q125.69 28.37 126.54 28.57L126.59 28.62L126.51 28.54Q127.33 28.69 128.01 29.10L128.15 29.24L128.05 29.15Q128.80 29.62 129.24 30.28L129.12 30.16L129.22 30.26Q129.69 30.95 129.69 31.88L129.72 31.90L129.65 31.84Q129.71 33.37 128.67 34.25L128.65 34.23L128.59 34.17Q127.59 35.09 126.33 35.52L126.19 35.38L126.29 35.48Q125.31 35.81 123.89 36.03L123.79 35.93L123.85 36.00Q122.40 36.18 120.92 36.37L120.97 36.42L121.00 36.45Q119.52 36.64 118.12 36.74L118.11 36.74L118.05 36.67Q116.70 36.83 115.66 36.88L115.68 36.90L115.80 44.84L115.87 44.91Q116.85 44.58 117.95 44.44L117.96 44.46L117.98 44.48Q119.17 44.44 120.32 44.44L120.19 44.30L120.16 44.28Q125.97 44.29 129.00 47.30L129.15 47.45L129.10 47.39Q132.07 50.34 132.07 56.14Z"></path><path fill="#ff0000" d="M161.95 31.32L161.98 31.35L161.94 31.31Q161.96 32.09 161.52 32.72L161.49 32.69L161.52 32.72Q161.14 33.41 160.48 33.85L160.42 33.79L160.52 33.88Q159.75 34.21 158.99 34.45L159.06 34.53L158.95 34.42Q158.25 34.73 157.59 34.73L157.50 34.64L157.57 34.71Q156.58 34.81 155.76 34.26L155.60 34.10L155.76 34.27Q154.85 33.63 154.85 32.48L154.83 32.46L154.84 32.47Q154.90 31.71 155.31 31.08L155.16 30.93L155.18 30.95Q155.66 30.39 156.29 29.98L156.23 29.92L156.37 30.06Q156.90 29.55 157.64 29.33L157.66 29.35L157.72 29.41Q158.47 29.21 159.18 29.21L159.12 29.15L159.13 29.15Q160.10 29.09 161.00 29.61L160.96 29.57L161.12 29.73Q161.86 30.08 161.86 31.23ZM162.90 54.97L163.05 55.11L162.94 55.00Q162.94 57.58 162.81 60.72L162.79 60.70L162.77 60.69Q162.78 63.98 162.27 67.15L162.29 67.18L162.13 67.01Q161.59 70.17 160.50 73.02L160.55 73.07L160.64 73.16Q159.58 76.03 157.61 77.95L157.61 77.95L157.48 77.82Q156.34 78.82 154.87 79.96L154.96 80.06L155.04 80.14Q153.45 81.17 151.78 82.16L151.78 82.15L151.89 82.26Q150.05 83.07 148.35 83.70L148.43 83.78L148.39 83.74Q146.72 84.39 145.19 84.39L145.12 84.33L145.28 84.48Q143.47 84.42 142.62 83.47L142.59 83.44L142.54 83.39Q141.76 82.50 141.76 80.81L141.82 80.86L141.76 80.80Q141.76 79.05 142.69 78.17L142.62 78.11L142.72 78.21Q143.57 77.25 144.94 76.60L145.08 76.74L145.02 76.68Q146.38 76.01 147.99 75.22L147.94 75.17L147.93 75.15Q149.65 74.47 151.01 72.88L150.96 72.83L150.97 72.84Q152.37 71.28 153.29 68.57L153.33 68.61L153.36 68.64Q154.18 65.83 154.18 61.40L154.15 61.36L154.22 61.43Q154.18 58.60 154.07 55.92L154.05 55.91L154.11 55.96Q154.06 53.34 153.84 50.55L153.85 50.56L153.78 50.49Q153.67 48.91 153.56 47.29L153.58 47.31L153.57 47.30Q153.33 45.56 153.33 43.97L153.51 44.15L153.33 43.97Q153.50 43.16 153.77 42.06L153.60 41.89L153.70 42.00Q154.05 40.97 154.60 40.07L154.52 40.00L154.55 40.02Q155.08 39.11 155.93 38.53L155.91 38.52L155.83 38.43Q156.75 37.93 157.95 37.93L158.00 37.98L158.00 37.98Q159.39 38.00 160.29 39.04L160.17 38.92L160.28 39.03Q161.23 40.12 161.81 41.73L161.62 41.55L161.75 41.67Q162.35 43.31 162.59 45.31L162.47 45.18L162.59 45.30Q162.85 47.32 162.96 49.20L162.91 49.15L162.95 49.19Q163.02 51.04 163.02 52.62L162.96 52.57L163.03 52.63Q163.06 54.25 163.06 55.12Z"></path></svg>